PathFileType	4	(X/Y/Z)	Patient4_TMGait_0pt6_01_right_47.trc.trc
DataRate	CameraRate	NumFrames	NumMarkers	Units	OrigDataRate	OrigDataStartFrame	OrigNumFrames
80.924855491330	80.924855491330	5	33	mm	80.924855491330	106	       141
Frame#	Time	Sacral			L.Shoulder			Chest			R.Shoulder			Neck			R.ASIS			L.ASIS			R.Thigh.Superior			R.Thigh.Lateral			R.Thigh.Inferior			R.Patella			L.Thigh.Superior			L.Thigh.Lateral			L.Thigh.Inferior			L.Patella			L.Shank.Superior			L.Shank.Lateral			L.Shank.Inferior			R.Shank.Superior			R.Shank.Lateral			R.Shank.Inferior			R.Heel			R.Midfoot.Superior			R.Midfoot.Lateral			R.Toe			L.Heel			L.Midfoot.Lateral			L.Midfoot.Superior			L.Toe			L.Elbow			L.Wrist			R.Elbow			R.Wrist			
		X1	Y1	Z1	X2	Y2	Z2	X3	Y3	Z3	X4	Y4	Z4	X5	Y5	Z5	X6	Y6	Z6	X7	Y7	Z7	X8	Y8	Z8	X9	Y9	Z9	X10	Y10	Z10	X11	Y11	Z11	X12	Y12	Z12	X13	Y13	Z13	X14	Y14	Z14	X15	Y15	Z15	X16	Y16	Z16	X17	Y17	Z17	X18	Y18	Z18	X19	Y19	Z19	X20	Y20	Z20	X21	Y21	Z21	X22	Y22	Z22	X23	Y23	Z23	X24	Y24	Z24	X25	Y25	Z25	X26	Y26	Z26	X27	Y27	Z27	X28	Y28	Z28	X29	Y29	Z29	X30	Y30	Z30	X31	Y31	Z31	X32	Y32	Z32	X33	Y33	Z33	

106	57.897500000000	775.397983930655	1014.946955105278	395.145988989850	966.086864840020	1446.572512180158	229.814839392665	1058.037937908226	1372.608896357944	394.295798115402	963.524066633625	1439.691926689590	564.036856989570	936.552302263131	1502.263216285761	384.030284582142	996.932173896523	953.940799529412	522.458177038481	999.738015235130	968.751782496601	247.342459280498	1087.862072103359	793.702572598244	490.903557438811	1058.751409508175	670.009855120127	564.175854625778	1148.344198957534	636.094311269423	482.776684222782	1178.879854212979	529.248226779899	506.244564740230	1022.204526315618	743.826450050240	283.452967440520	918.748677654368	637.317130848126	225.209151595082	989.650566980002	552.260510979580	292.332428670363	980.950568711465	485.276004825294	305.577726749063	954.254891712253	416.133358900871	299.095182819086	861.877030874522	302.900408297224	252.770389649275	906.962155301368	193.091508691943	328.809613531200	1118.896505532932	444.446526457725	514.032810376539	1010.924182719788	376.284824242983	572.910209816891	1025.406744829554	266.708979721121	524.818187333087	847.691094867692	157.892446745857	493.852605889887	1023.422292353182	138.741816505536	535.710886998222	917.362353233009	112.492039276551	568.127768901924	1112.493088848779	45.390422249316	564.738051722038	775.808440379828	39.848371953314	378.831490222063	847.508549812836	35.295374614423	296.462719803078	931.976488956345	96.071427774737	320.217471243696	1059.795994362759	40.913854503857	288.901354580838	1022.390756586115	1108.295860503434	86.784325346870	1254.106973083327	990.079263108101	95.744297045444	871.283873692203	1097.650911865820	660.943038820554	873.589101529953	837.253221019112	675.650367712888	
107	57.909857142857	774.565799002952	1014.959843296168	394.365085814071	967.623777604357	1446.480235134660	229.913085817135	1058.102836702667	1372.126299242979	394.990605156456	962.548603567816	1439.483852589065	564.012366860465	936.832790905833	1502.060026534550	384.044579419783	995.548585237857	953.964474650117	522.719262749755	999.070235340456	968.334630726607	247.606496420471	1086.527558845363	794.377632554460	491.236357501995	1057.919745110697	670.491595347326	564.557280162702	1147.321685998450	636.893829247547	483.102188023206	1179.239642371005	532.152403039562	506.532150376458	1019.301868787118	742.806733666940	283.724859957529	914.561273156811	637.373938433224	224.860324692781	984.112979132080	551.548518514742	292.080440681117	974.641677717900	484.837712406189	305.196926395583	947.855074299494	415.976770344278	298.719935884402	855.106768625776	303.022246690365	252.454479829956	899.837078213252	193.072658619008	328.554869945482	1123.701706957415	445.836262510087	514.533166861294	1020.614411036050	371.512101242291	574.200689502844	1041.325183263304	262.974410381392	525.861659894465	870.538696651250	143.771421798485	495.840680613039	1047.030798074840	134.993148690671	536.673442940428	943.099599643467	102.749776630624	569.937910208294	1141.579314829737	47.151314100194	565.476460521996	768.407786673726	39.978230577300	378.719924710398	840.082399145224	35.295312614241	296.424464825212	924.588377629829	96.070480594960	320.087622998150	1052.368807581730	40.811477065133	288.866849804174	1026.842176944898	1109.549231256556	86.148334719496	1262.773384619961	1000.604195458887	96.102574044639	861.319227630878	1100.872666291795	661.185450996461	854.186641372862	841.031736523753	677.983059793010	
108	57.922214285714	773.826571185320	1014.842053352371	393.729004968487	969.047927701999	1446.205993693395	230.130229430907	1058.198736962781	1371.511925768897	395.735883710801	961.743167470290	1439.210595255255	564.089089714834	937.142913613356	1501.717644845082	384.163719999763	994.313404933878	953.758613692129	523.046331002796	998.371064806209	967.798300579158	247.920252908786	1084.835973687817	794.281475808070	491.680828790499	1056.221748874645	670.328140986471	565.066966480709	1145.404082292447	636.792251172639	483.622405215262	1178.472397772154	534.356638478651	506.863769603428	1016.446208164207	741.736530599449	283.841917449815	910.345930067693	637.403753033758	224.518656336579	978.617195296468	550.824062576207	291.758117510170	968.405390179171	484.385741394368	304.752991825674	941.480313287301	415.814607143357	298.316655759532	848.315796198109	303.144657479565	252.149920842114	892.729701068124	193.049931825983	328.301740159961	1127.639839516490	446.863018913252	515.135002017109	1030.128332875141	366.496000384923	575.807329207017	1057.131451798931	259.449084047541	527.097550997267	894.222173607756	129.933018357205	498.174277317102	1070.874800623993	131.881561932187	537.846399165858	969.537204497904	93.594090455945	572.020678261717	1170.729910639593	50.029352428065	566.318979239000	761.007134263113	40.102712593914	378.619124864624	832.655718008471	35.296476670872	296.389579167071	917.198419112991	96.065635317178	319.963924260270	1044.935873935805	40.713710170338	288.833375593951	1031.023593421863	1110.588472693076	85.681013315560	1270.575179027808	1010.628120036323	96.672067709300	851.620264531418	1104.364609154738	661.679217500947	836.273448054377	845.330479958116	680.060233270354	
109	57.934571428571	773.196695446375	1014.586629590254	393.240550408889	970.331600840066	1445.756944528183	230.461297454884	1058.314978536422	1370.780742870193	396.525153010137	961.104093343197	1438.880971926100	564.268581042327	937.463481905416	1501.243831086273	384.374714809024	993.244432545218	953.331386708468	523.444689000083	997.662527981075	967.150363794604	248.290358868943	1082.815750668863	793.408203179383	492.244413072861	1053.695482952935	669.536249378232	565.738044119371	1142.636909860105	635.801977083505	484.347590540028	1176.630842977604	535.841985390300	507.241221247115	1013.635392383469	740.613058271995	283.836150408829	906.115788871641	637.404547518055	224.201019642507	973.167195494496	550.085092353535	291.397623037996	962.247341861750	483.913507519213	304.268520746855	935.127723916694	415.644131451905	297.902644037515	841.500302647750	303.268991149581	251.866439857355	885.636138354238	193.022567294228	328.057459348300	1130.691857822590	447.545530705892	515.845484498640	1039.351886579780	361.372592405663	577.680756379810	1072.622810683557	256.263924178877	528.479222384083	918.447957163997	116.697803453550	500.715936619146	1094.646284680146	129.540389174469	539.186925147059	996.306059260084	85.244773341039	574.252580971829	1199.526903579710	54.044121945828	567.219623416294	753.599978168465	40.217781712095	378.533846136093	825.225667760054	35.298800669951	296.359578759736	909.803009702518	96.054633785865	319.849178434213	1037.494639070321	40.622313834212	288.802199564556	1034.935597979398	1111.417072173580	85.377360211185	1277.528999717254	1020.040197810077	97.441219850001	842.332819771479	1108.049793697110	662.367386880906	819.852234956885	849.931602865218	681.902080704301	
110	57.946928571429	772.693152096665	1014.184262395502	392.906198227082	971.452245505070	1445.145209283890	230.900779107585	1058.439431672816	1369.950293136126	397.353825331989	960.619940090798	1438.499600948432	564.552826335265	937.772124953998	1500.646487340711	384.668745617112	992.357482665401	952.695916103420	523.918822901925	996.968650045823	966.398223425269	248.727606875722	1080.517610297076	791.785456546666	492.938520899798	1050.429533272068	668.160476767428	566.603959491620	1139.106801601536	633.972536111430	485.279374783619	1173.807608621619	536.613780112066	507.675159056961	1010.866646620355	739.434450219528	283.757546792383	901.894459495330	637.372898919627	223.927259519195	967.774074375362	549.328967530837	291.037239237920	956.179754462764	483.413141641274	303.769835205501	928.802679487294	415.459502870918	297.497713160285	834.664429604065	303.397121631437	251.613348619056	878.553679304988	192.987947267224	327.828297612666	1132.858952455751	447.901621901269	516.676155479533	1048.128543575473	356.269194884290	579.747058004470	1087.553310555400	253.509648418412	529.955538778776	942.802854720795	104.357067629270	503.299151212015	1117.962993281157	128.031743946102	540.654339172343	1022.920721174926	77.859855836204	576.494585377185	1227.478427329493	59.091790903713	568.145257056904	746.182110749994	40.320697973241	378.466445598480	817.789627673197	35.301508777845	296.335879239315	902.399556682383	96.035285608052	319.745610539049	1030.043631261219	40.538563660752	288.774469273916	1038.566655973051	1112.040426683954	85.234799457528	1283.656291088743	1028.738890393653	98.398997944732	833.601806527225	1111.823380988185	663.188588666394	804.917043020313	854.634141723718	683.533459429494	
